<svg width="38" height="38" viewBox="0 0 38 38" fill="none" xmlns="http://www.w3.org/2000/svg">
<g clip-path="url(#clip0_77_2)">
<rect width="37.5" height="37.5" rx="8" fill="#85B749"/>
<path d="M15.9344 26.4001C15.4059 27.5556 13.6422 30.2509 8.68634 30.2509C8.4377 30.2509 8.19925 30.1521 8.02343 29.9763C7.84762 29.8005 7.74884 29.562 7.74884 29.3134C7.74884 24.3575 10.4442 22.5938 11.5996 22.0653C11.7117 22.0142 11.8327 21.9857 11.9557 21.9814C12.0788 21.9771 12.2015 21.997 12.3168 22.0401C12.4322 22.0832 12.5379 22.1486 12.628 22.2325C12.7181 22.3165 12.7907 22.4174 12.8418 22.5294C12.8929 22.6414 12.9214 22.7624 12.9258 22.8855C12.9301 23.0085 12.9101 23.1312 12.867 23.2466C12.824 23.3619 12.7586 23.4677 12.6746 23.5577C12.5907 23.6478 12.4898 23.7205 12.3778 23.7716C11.6242 24.1149 9.96134 25.22 9.66838 28.3313C12.7797 28.0384 13.8871 26.3755 14.2281 25.622C14.2792 25.5099 14.3519 25.4091 14.442 25.3251C14.532 25.2412 14.6378 25.1758 14.7531 25.1327C14.8685 25.0896 14.9912 25.0696 15.1142 25.074C15.2373 25.0783 15.3583 25.1068 15.4703 25.1579C15.5824 25.209 15.6832 25.2817 15.7672 25.3717C15.8511 25.4618 15.9165 25.5675 15.9596 25.6829C16.0027 25.7982 16.0227 25.9209 16.0183 26.044C16.014 26.1671 15.9855 26.2881 15.9344 26.4001ZM30.2313 9.52509C30.2035 9.06797 30.0094 8.63683 29.6855 8.313C29.3617 7.98917 28.9306 7.79506 28.4735 7.76728C26.9992 7.67939 23.2317 7.81415 20.1063 10.9395L14.3113 16.7392C14.2243 16.8263 14.121 16.8955 14.0072 16.9428C13.8934 16.99 13.7715 17.0144 13.6483 17.0145C13.3995 17.0147 13.1609 16.9161 12.9848 16.7403C12.8087 16.5646 12.7097 16.3261 12.7095 16.0773C12.7092 15.8285 12.8079 15.5898 12.9836 15.4138L16.0961 12.3001C16.1613 12.2345 16.2056 12.1512 16.2235 12.0605C16.2414 11.9699 16.2322 11.8759 16.1969 11.7905C16.1615 11.7051 16.1018 11.632 16.025 11.5805C15.9483 11.529 15.8581 11.5013 15.7656 11.5009H12.7117C12.4647 11.4996 12.22 11.5474 11.9916 11.6415C11.7633 11.7357 11.5559 11.8743 11.3817 12.0493L7.36213 16.0712C7.11562 16.3175 6.94264 16.6277 6.86261 16.9669C6.78258 17.306 6.79866 17.6608 6.90905 17.9914C7.01943 18.3219 7.21976 18.6152 7.48754 18.8382C7.75532 19.0612 8.07995 19.2052 8.42502 19.254L12.9332 19.8833L18.1141 25.0642L18.7434 29.5747C18.7918 29.9198 18.9357 30.2444 19.159 30.512C19.3822 30.7796 19.6758 30.9793 20.0067 31.0888C20.1993 31.1531 20.4012 31.186 20.6043 31.186C20.8503 31.1865 21.094 31.1383 21.3212 31.0441C21.5485 30.95 21.7549 30.8118 21.9285 30.6376L25.9504 26.6181C26.1249 26.4434 26.2632 26.236 26.3573 26.0077C26.4514 25.7795 26.4995 25.5349 26.4988 25.288V22.2341C26.4987 22.1414 26.4711 22.0509 26.4195 21.9739C26.3679 21.8969 26.2946 21.837 26.209 21.8016C26.1233 21.7662 26.0291 21.7571 25.9383 21.7752C25.8474 21.7934 25.7639 21.838 25.6985 21.9036L22.5848 25.0161C22.4937 25.1073 22.3848 25.1787 22.2649 25.2259C22.145 25.2731 22.0167 25.2951 21.8879 25.2904C21.7592 25.2858 21.6327 25.2547 21.5165 25.199C21.4003 25.1434 21.2968 25.0643 21.2125 24.9669C21.0587 24.7809 20.9806 24.5438 20.9936 24.3028C21.0066 24.0618 21.1099 23.8345 21.2828 23.6661L27.0567 17.8923C30.1844 14.7657 30.3192 10.9981 30.2313 9.52275V9.52509Z" fill="black"/>
</g>
<defs>
<clipPath id="clip0_77_2">
<rect width="37.5" height="37.5" fill="white"/>
</clipPath>
</defs>
</svg>
